<svg width="448" height="168" viewBox="0 0 448 168" fill="none" xmlns="http://www.w3.org/2000/svg">
<rect x="239" width="200" height="151" rx="50" fill="#D7D7D7"/>
<rect x="183" y="50" width="156" height="118" rx="50" fill="#8066DD"/>
<path d="M35.1875 107.25C37.5208 107.25 39.6042 106.792 41.4375 105.875C43.2708 104.958 44.7292 103.667 45.8125 102C46.9375 100.333 47.5417 98.3958 47.625 96.1875H63.1875C63.1042 100.771 61.8125 104.875 59.3125 108.5C56.8125 112.125 53.4792 115 49.3125 117.125C45.1875 119.208 40.5625 120.25 35.4375 120.25C30.2292 120.25 25.6875 119.375 21.8125 117.625C17.9375 115.875 14.7083 113.438 12.125 110.312C9.58333 107.188 7.66667 103.562 6.375 99.4375C5.125 95.3125 4.5 90.8958 4.5 86.1875V84.1875C4.5 79.4792 5.125 75.0625 6.375 70.9375C7.66667 66.8125 9.58333 63.1875 12.125 60.0625C14.7083 56.9375 17.9375 54.5 21.8125 52.75C25.6875 51 30.2083 50.125 35.375 50.125C40.8333 50.125 45.625 51.1875 49.75 53.3125C53.9167 55.4375 57.1667 58.4375 59.5 62.3125C61.875 66.1875 63.1042 70.75 63.1875 76H47.625C47.5417 73.5833 47 71.4167 46 69.5C45 67.5833 43.5833 66.0417 41.75 64.875C39.9167 63.7083 37.6875 63.125 35.0625 63.125C32.2708 63.125 29.9375 63.7083 28.0625 64.875C26.2292 66.0417 24.7917 67.6458 23.75 69.6875C22.75 71.6875 22.0417 73.9375 21.625 76.4375C21.25 78.8958 21.0625 81.4792 21.0625 84.1875V86.1875C21.0625 88.9375 21.25 91.5625 21.625 94.0625C22.0417 96.5625 22.75 98.8125 23.75 100.812C24.7917 102.771 26.2292 104.333 28.0625 105.5C29.9375 106.667 32.3125 107.25 35.1875 107.25ZM91.6875 51.375V119H75.125V51.375H91.6875ZM74 33.6875C74 31.2292 74.8333 29.1875 76.5 27.5625C78.2083 25.9375 80.5 25.125 83.375 25.125C86.25 25.125 88.5208 25.9375 90.1875 27.5625C91.8958 29.1875 92.75 31.2292 92.75 33.6875C92.75 36.1042 91.8958 38.125 90.1875 39.75C88.5208 41.375 86.25 42.1875 83.375 42.1875C80.5 42.1875 78.2083 41.375 76.5 39.75C74.8333 38.125 74 36.1042 74 33.6875ZM123.625 65.8125V119H107.125V51.375H122.625L123.625 65.8125ZM121 82.75H116.125C116.167 77.8333 116.833 73.375 118.125 69.375C119.417 65.375 121.229 61.9375 123.562 59.0625C125.938 56.1875 128.75 53.9792 132 52.4375C135.25 50.8958 138.875 50.125 142.875 50.125C146.125 50.125 149.062 50.5833 151.688 51.5C154.312 52.4167 156.562 53.875 158.438 55.875C160.354 57.875 161.812 60.5 162.812 63.75C163.854 66.9583 164.375 70.9167 164.375 75.625V119H147.75V75.5C147.75 72.4167 147.292 69.9792 146.375 68.1875C145.5 66.3958 144.208 65.125 142.5 64.375C140.833 63.625 138.771 63.25 136.312 63.25C133.771 63.25 131.542 63.7708 129.625 64.8125C127.75 65.8125 126.167 67.2083 124.875 69C123.625 70.7917 122.667 72.8542 122 75.1875C121.333 77.5208 121 80.0417 121 82.75ZM209.312 120.25C204.188 120.25 199.583 119.417 195.5 117.75C191.417 116.083 187.938 113.771 185.062 110.812C182.229 107.812 180.042 104.333 178.5 100.375C177 96.375 176.25 92.0833 176.25 87.5V85C176.25 79.7917 177 75.0625 178.5 70.8125C180 66.5208 182.125 62.8333 184.875 59.75C187.625 56.6667 190.917 54.2917 194.75 52.625C198.583 50.9583 202.812 50.125 207.438 50.125C212.229 50.125 216.458 50.9375 220.125 52.5625C223.792 54.1458 226.854 56.3958 229.312 59.3125C231.771 62.2292 233.625 65.7292 234.875 69.8125C236.125 73.8542 236.75 78.3333 236.75 83.25V90.1875H183.75V78.8125H220.5V77.5625C220.417 74.9375 219.917 72.5417 219 70.375C218.083 68.1667 216.667 66.4167 214.75 65.125C212.833 63.7917 210.354 63.125 207.312 63.125C204.854 63.125 202.708 63.6667 200.875 64.75C199.083 65.7917 197.583 67.2917 196.375 69.25C195.208 71.1667 194.333 73.4583 193.75 76.125C193.167 78.7917 192.875 81.75 192.875 85V87.5C192.875 90.3333 193.25 92.9583 194 95.375C194.792 97.7917 195.938 99.8958 197.438 101.688C198.979 103.438 200.812 104.812 202.938 105.812C205.104 106.771 207.562 107.25 210.312 107.25C213.771 107.25 216.896 106.583 219.688 105.25C222.521 103.875 224.979 101.854 227.062 99.1875L235.375 107.812C233.958 109.896 232.042 111.896 229.625 113.812C227.25 115.729 224.375 117.292 221 118.5C217.625 119.667 213.729 120.25 209.312 120.25ZM260.75 51.375L272.812 72.875L285.062 51.375H303L283.125 84.5L303.812 119H285.875L272.938 96.4375L259.938 119H242L262.625 84.5L242.875 51.375H260.75ZM330.062 51.375V119H313.5V51.375H330.062ZM312.375 33.6875C312.375 31.2292 313.208 29.1875 314.875 27.5625C316.583 25.9375 318.875 25.125 321.75 25.125C324.625 25.125 326.896 25.9375 328.562 27.5625C330.271 29.1875 331.125 31.2292 331.125 33.6875C331.125 36.1042 330.271 38.125 328.562 39.75C326.896 41.375 324.625 42.1875 321.75 42.1875C318.875 42.1875 316.583 41.375 314.875 39.75C313.208 38.125 312.375 36.1042 312.375 33.6875ZM342.875 85.875V84.5625C342.875 79.6042 343.583 75.0417 345 70.875C346.417 66.6667 348.479 63.0208 351.188 59.9375C353.896 56.8542 357.208 54.4583 361.125 52.75C365.042 51 369.5 50.125 374.5 50.125C379.583 50.125 384.083 51 388 52.75C391.958 54.4583 395.292 56.8542 398 59.9375C400.708 63.0208 402.771 66.6667 404.188 70.875C405.604 75.0417 406.312 79.6042 406.312 84.5625V85.875C406.312 90.7917 405.604 95.3542 404.188 99.5625C402.771 103.729 400.708 107.375 398 110.5C395.292 113.583 391.979 115.979 388.062 117.688C384.146 119.396 379.667 120.25 374.625 120.25C369.625 120.25 365.146 119.396 361.188 117.688C357.229 115.979 353.896 113.583 351.188 110.5C348.479 107.375 346.417 103.729 345 99.5625C343.583 95.3542 342.875 90.7917 342.875 85.875ZM359.375 84.5625V85.875C359.375 88.8333 359.667 91.6042 360.25 94.1875C360.833 96.7708 361.729 99.0417 362.938 101C364.146 102.958 365.708 104.5 367.625 105.625C369.583 106.708 371.917 107.25 374.625 107.25C377.292 107.25 379.583 106.708 381.5 105.625C383.417 104.5 384.979 102.958 386.188 101C387.438 99.0417 388.354 96.7708 388.938 94.1875C389.521 91.6042 389.812 88.8333 389.812 85.875V84.5625C389.812 81.6458 389.521 78.9167 388.938 76.375C388.354 73.7917 387.438 71.5208 386.188 69.5625C384.979 67.5625 383.396 66 381.438 64.875C379.521 63.7083 377.208 63.125 374.5 63.125C371.833 63.125 369.542 63.7083 367.625 64.875C365.708 66 364.146 67.5625 362.938 69.5625C361.729 71.5208 360.833 73.7917 360.25 76.375C359.667 78.9167 359.375 81.6458 359.375 84.5625ZM419 110.938C419 108.438 419.854 106.333 421.562 104.625C423.271 102.917 425.583 102.062 428.5 102.062C431.417 102.062 433.729 102.917 435.438 104.625C437.146 106.333 438 108.438 438 110.938C438 113.396 437.146 115.479 435.438 117.188C433.729 118.854 431.417 119.688 428.5 119.688C425.583 119.688 423.271 118.854 421.562 117.188C419.854 115.479 419 113.396 419 110.938Z" fill="black"/>
</svg>
